# xmcd CD database file
#
# Track frame offsets:
#	150
#	13449
#	32186
#	51230
#	64923
#	74996
#	100733
#	121148
#	143786
#	162418
#	183134
#	199788
#	217626
#	235872
#	255890
#	273596
#	296373
#	317309
#	332709
#
# Disc length: 4601 seconds
#
# Revision: 1
# Processed by: cddbd v1.5.1PL2 Copyright (c) Steve Scherf et al.
# Submitted via: CDex 1.51
#
DISCID=1711f713
DTITLE=Various Artist - Ultimate Smooth Jazz - CD1 (After Work)
DYEAR=2006
DGENRE=Jazz
TTITLE0=Nina Simone - Feeling Good
TTITLE1=Gladys Knight and the Pips - Midnight Train to Georgia
TTITLE2=Mark Sholtez - If You Were a Song
TTITLE3=Dizzy Gillespie - Bang Bang
TTITLE4=Wes Montgomery - Goin' Out Of My Head
TTITLE5=Jimmy Smith - Spill The Wine
TTITLE6=Paul Anka - True
TTITLE7=Vince Jones - Straighten Up And Fly Right
TTITLE8=Bill Withers - Lovely Day
TTITLE9=The Isley Brothers - Summer Breeze
TTITLE10=Down to the Bone - My One and All
TTITLE11=India.Arie - Video
TTITLE12=Leo Green - Cloud 9
TTITLE13=Jeff Golub - Crazy Love
TTITLE14=Marvin Gaye - Let's Get It On
TTITLE15=Gerald Albright - Change the World
TTITLE16=Incognito - Don't You Worry 'Bout A Thing
TTITLE17=Bernie Williams - Para Don Berna
TTITLE18=Quincy Jones and His Orchestra - Soul Bossa Nova (Original Mix)
EXTD=YEAR: 2006
EXTT0=
EXTT1=
EXTT2=
EXTT3=
EXTT4=
EXTT5=
EXTT6=
EXTT7=
EXTT8=
EXTT9=
EXTT10=
EXTT11=
EXTT12=
EXTT13=
EXTT14=
EXTT15=
EXTT16=
EXTT17=
EXTT18=
PLAYORDER=
